<svg viewBox="0 0 1116 522" xmlns="http://www.w3.org/2000/svg" font-family="Arial, sans-serif">
<rect x="0" y="0" width="1116" height="522" fill="#FFFFFF"/>
<text x="558.0" y="30" text-anchor="middle" font-size="20" font-weight="bold" fill="#1F4E78">לוח לימודים – סיעוד המבוגר (חלק א׳)</text>
<text x="558.0" y="50" text-anchor="middle" font-size="13" fill="#555555">2.7.2026 עד 2.8.2026</text>
<line x1="190" y1="65" x2="190" y2="462" stroke="#E5E5E5" stroke-width="1"/>
<text x="204.0" y="60" text-anchor="middle" font-size="9" fill="#888888">2.7</text>
<line x1="218" y1="65" x2="218" y2="462" stroke="#E5E5E5" stroke-width="1"/>
<line x1="246" y1="65" x2="246" y2="462" stroke="#E5E5E5" stroke-width="1"/>
<text x="260.0" y="60" text-anchor="middle" font-size="9" fill="#888888">4.7</text>
<line x1="274" y1="65" x2="274" y2="462" stroke="#E5E5E5" stroke-width="1"/>
<line x1="302" y1="65" x2="302" y2="462" stroke="#E5E5E5" stroke-width="1"/>
<text x="316.0" y="60" text-anchor="middle" font-size="9" fill="#888888">6.7</text>
<line x1="330" y1="65" x2="330" y2="462" stroke="#E5E5E5" stroke-width="1"/>
<line x1="358" y1="65" x2="358" y2="462" stroke="#E5E5E5" stroke-width="1"/>
<text x="372.0" y="60" text-anchor="middle" font-size="9" fill="#888888">8.7</text>
<line x1="386" y1="65" x2="386" y2="462" stroke="#E5E5E5" stroke-width="1"/>
<line x1="414" y1="65" x2="414" y2="462" stroke="#E5E5E5" stroke-width="1"/>
<text x="428.0" y="60" text-anchor="middle" font-size="9" fill="#888888">10.7</text>
<line x1="442" y1="65" x2="442" y2="462" stroke="#E5E5E5" stroke-width="1"/>
<line x1="470" y1="65" x2="470" y2="462" stroke="#E5E5E5" stroke-width="1"/>
<text x="484.0" y="60" text-anchor="middle" font-size="9" fill="#888888">12.7</text>
<line x1="498" y1="65" x2="498" y2="462" stroke="#E5E5E5" stroke-width="1"/>
<line x1="526" y1="65" x2="526" y2="462" stroke="#E5E5E5" stroke-width="1"/>
<text x="540.0" y="60" text-anchor="middle" font-size="9" fill="#888888">14.7</text>
<line x1="554" y1="65" x2="554" y2="462" stroke="#E5E5E5" stroke-width="1"/>
<line x1="582" y1="65" x2="582" y2="462" stroke="#E5E5E5" stroke-width="1"/>
<text x="596.0" y="60" text-anchor="middle" font-size="9" fill="#888888">16.7</text>
<line x1="610" y1="65" x2="610" y2="462" stroke="#E5E5E5" stroke-width="1"/>
<line x1="638" y1="65" x2="638" y2="462" stroke="#E5E5E5" stroke-width="1"/>
<text x="652.0" y="60" text-anchor="middle" font-size="9" fill="#888888">18.7</text>
<line x1="666" y1="65" x2="666" y2="462" stroke="#E5E5E5" stroke-width="1"/>
<line x1="694" y1="65" x2="694" y2="462" stroke="#E5E5E5" stroke-width="1"/>
<text x="708.0" y="60" text-anchor="middle" font-size="9" fill="#888888">20.7</text>
<line x1="722" y1="65" x2="722" y2="462" stroke="#E5E5E5" stroke-width="1"/>
<line x1="750" y1="65" x2="750" y2="462" stroke="#E5E5E5" stroke-width="1"/>
<text x="764.0" y="60" text-anchor="middle" font-size="9" fill="#888888">22.7</text>
<line x1="778" y1="65" x2="778" y2="462" stroke="#E5E5E5" stroke-width="1"/>
<line x1="806" y1="65" x2="806" y2="462" stroke="#E5E5E5" stroke-width="1"/>
<text x="820.0" y="60" text-anchor="middle" font-size="9" fill="#888888">24.7</text>
<line x1="834" y1="65" x2="834" y2="462" stroke="#E5E5E5" stroke-width="1"/>
<line x1="862" y1="65" x2="862" y2="462" stroke="#E5E5E5" stroke-width="1"/>
<text x="876.0" y="60" text-anchor="middle" font-size="9" fill="#888888">26.7</text>
<line x1="890" y1="65" x2="890" y2="462" stroke="#E5E5E5" stroke-width="1"/>
<line x1="918" y1="65" x2="918" y2="462" stroke="#E5E5E5" stroke-width="1"/>
<text x="932.0" y="60" text-anchor="middle" font-size="9" fill="#888888">28.7</text>
<line x1="946" y1="65" x2="946" y2="462" stroke="#E5E5E5" stroke-width="1"/>
<line x1="974" y1="65" x2="974" y2="462" stroke="#E5E5E5" stroke-width="1"/>
<text x="988.0" y="60" text-anchor="middle" font-size="9" fill="#888888">30.7</text>
<line x1="1002" y1="65" x2="1002" y2="462" stroke="#E5E5E5" stroke-width="1"/>
<line x1="1030" y1="65" x2="1030" y2="462" stroke="#E5E5E5" stroke-width="1"/>
<text x="1044.0" y="60" text-anchor="middle" font-size="9" fill="#888888">1.8</text>
<line x1="1058" y1="65" x2="1058" y2="462" stroke="#E5E5E5" stroke-width="1"/>
<line x1="1086" y1="65" x2="1086" y2="462" stroke="#E5E5E5" stroke-width="1"/>
<text x="1100.0" y="60" text-anchor="middle" font-size="9" fill="#888888">3.8</text>
<text x="178" y="98.0" text-anchor="end" font-size="13" fill="#222222">אנדוקרינולוגיה</text>
<line x1="190" y1="116" x2="1086" y2="116" stroke="#F0F0F0" stroke-width="1"/>
<text x="178" y="154.0" text-anchor="end" font-size="13" fill="#222222">מבוא לסיעוד המבוגר</text>
<line x1="190" y1="172" x2="1086" y2="172" stroke="#F0F0F0" stroke-width="1"/>
<text x="178" y="210.0" text-anchor="end" font-size="13" fill="#222222">מחלות כלי דם פריפריים</text>
<line x1="190" y1="228" x2="1086" y2="228" stroke="#F0F0F0" stroke-width="1"/>
<text x="178" y="266.0" text-anchor="end" font-size="13" fill="#222222">מערכת נשימה</text>
<line x1="190" y1="284" x2="1086" y2="284" stroke="#F0F0F0" stroke-width="1"/>
<text x="178" y="322.0" text-anchor="end" font-size="13" fill="#222222">מערכת עיכול (כירורגיה)</text>
<line x1="190" y1="340" x2="1086" y2="340" stroke="#F0F0F0" stroke-width="1"/>
<text x="178" y="378.0" text-anchor="end" font-size="13" fill="#222222">קרדיולוגיה</text>
<line x1="190" y1="396" x2="1086" y2="396" stroke="#F0F0F0" stroke-width="1"/>
<text x="178" y="434.0" text-anchor="end" font-size="13" fill="#222222">חזרה ומבחן</text>
<line x1="190" y1="452" x2="1086" y2="452" stroke="#F0F0F0" stroke-width="1"/>
<rect x="191" y="73" width="54" height="40" rx="6" fill="#5B9BD5"/>
<text x="218.0" y="98.0" text-anchor="middle" font-size="11" fill="#FFFFFF" font-weight="bold">מעבר 1 · 2 ש'</text>
<rect x="639" y="73" width="26" height="40" rx="6" fill="#FFC000"/>
<text x="652.0" y="98.0" text-anchor="middle" font-size="11" fill="#FFFFFF" font-weight="bold">ריענון · 1.5 ש'</text>
<rect x="247" y="129" width="82" height="40" rx="6" fill="#5B9BD5"/>
<text x="288.0" y="154.0" text-anchor="middle" font-size="11" fill="#FFFFFF" font-weight="bold">מעבר 1 · 2 ש'</text>
<rect x="667" y="129" width="54" height="40" rx="6" fill="#FFC000"/>
<text x="694.0" y="154.0" text-anchor="middle" font-size="11" fill="#FFFFFF" font-weight="bold">ריענון · 1.5 ש'</text>
<rect x="331" y="185" width="26" height="40" rx="6" fill="#5B9BD5"/>
<text x="344.0" y="210.0" text-anchor="middle" font-size="11" fill="#FFFFFF" font-weight="bold">מעבר 1 · 3 ש'</text>
<rect x="723" y="185" width="26" height="40" rx="6" fill="#FFC000"/>
<text x="736.0" y="210.0" text-anchor="middle" font-size="11" fill="#FFFFFF" font-weight="bold">ריענון · 1.5 ש'</text>
<rect x="359" y="241" width="54" height="40" rx="6" fill="#5B9BD5"/>
<text x="386.0" y="266.0" text-anchor="middle" font-size="11" fill="#FFFFFF" font-weight="bold">מעבר 1 · 2 ש'</text>
<rect x="751" y="241" width="54" height="40" rx="6" fill="#FFC000"/>
<text x="778.0" y="266.0" text-anchor="middle" font-size="11" fill="#FFFFFF" font-weight="bold">ריענון · 1 ש'</text>
<rect x="415" y="297" width="138" height="40" rx="6" fill="#5B9BD5"/>
<text x="484.0" y="322.0" text-anchor="middle" font-size="11" fill="#FFFFFF" font-weight="bold">מעבר 1 · 2 ש'</text>
<rect x="807" y="297" width="110" height="40" rx="6" fill="#FFC000"/>
<text x="862.0" y="322.0" text-anchor="middle" font-size="11" fill="#FFFFFF" font-weight="bold">ריענון · 1 ש'</text>
<rect x="555" y="353" width="82" height="40" rx="6" fill="#5B9BD5"/>
<text x="596.0" y="378.0" text-anchor="middle" font-size="11" fill="#FFFFFF" font-weight="bold">מעבר 1 · 2.5 ש'</text>
<rect x="919" y="353" width="82" height="40" rx="6" fill="#FFC000"/>
<text x="960.0" y="378.0" text-anchor="middle" font-size="11" fill="#FFFFFF" font-weight="bold">ריענון · 1 ש'</text>
<rect x="1003" y="409" width="54" height="40" rx="6" fill="#ED7D31"/>
<text x="1030.0" y="434.0" text-anchor="middle" font-size="11" fill="#FFFFFF" font-weight="bold">חזרה אחרונה · 3 ש'</text>
<rect x="1059" y="409" width="26" height="40" rx="6" fill="#70AD47"/>
<text x="1072.0" y="434.0" text-anchor="middle" font-size="11" fill="#FFFFFF" font-weight="bold">מבחן</text>
<rect x="190" y="482" width="16" height="16" rx="3" fill="#5B9BD5"/>
<text x="212" y="495" font-size="12" fill="#333333">מעבר 1</text>
<rect x="320" y="482" width="16" height="16" rx="3" fill="#FFC000"/>
<text x="342" y="495" font-size="12" fill="#333333">ריענון</text>
<rect x="450" y="482" width="16" height="16" rx="3" fill="#ED7D31"/>
<text x="472" y="495" font-size="12" fill="#333333">חזרה אחרונה</text>
<rect x="580" y="482" width="16" height="16" rx="3" fill="#70AD47"/>
<text x="602" y="495" font-size="12" fill="#333333">מבחן</text>
</svg>